<?xml version="1.0" encoding="utf-8"?>
<!-- Svg Vector Icons : http://www.sfont.cn -->
<!DOCTYPE svg PUBLIC "-//W3C//DTD SVG 1.1//EN" "http://www.w3.org/Graphics/SVG/1.1/DTD/svg11.dtd">
<svg fill="#cc56ac" version="1.1" xmlns="http://www.w3.org/2000/svg" xmlns:xlink="http://www.w3.org/1999/xlink" x="0px" y="0px" viewBox="0 0 1000 1000" enable-background="new 0 0 1000 1000" xml:space="preserve">
<metadata> Svg Vector Icons : http://www.sfont.cn </metadata>
<g><g transform="translate(0.000000,511.000000) scale(0.100000,-0.100000)"><path d="M4516.9,4999.3c-754.1-58.9-1512.1-355.4-2201.4-858.2c-243.5-178.7-312.2-271-282.8-382.9c29.5-111.9,41.2-108,194.4,45.2c182.6,186.6,430.1,371.1,699.1,526.3c237.6,135.5,669.6,335.8,724.6,335.8c58.9,0,100.2-62.8,133.5-208.2c68.7-294.6,384.9-1472.8,406.5-1519.9c47.1-98.2,121.8-108,809.1-108c728.5,2,767.8,7.9,811,139.4c39.3,115.9,371.2,1376.6,396.7,1506.2c29.5,143.4,78.5,200.3,163,182.6c86.4-17.7,622.5-280.8,818.9-402.6c220-137.5,455.6-322,597-473.3c110-113.9,117.8-119.8,143.3-86.4c106,143.3,5.9,274.9-435.9,571.5c-540,363.3-1184.1,620.5-1763.4,703C5487,5005.2,4801.7,5022.8,4516.9,4999.3z"/><path d="M1920.9,3709.1c-196.4-1109.5-214.1-1256.8-249.4-2067.8c-15.7-386.9-29.5-520.4-55-589.1c-41.2-108-45.2-669.6-9.8-1590.6c17.7-518.4,27.5-614.6,60.9-712.8c58.9-161,78.5-284.7,111.9-699.1c17.7-200.3,41.2-418.3,56.9-483.1c113.9-520.4,194.4-901.4,235.6-1115.4c56.9-296.5,78.5-329.9,304.4-502.7c471.3-359.4,1247-803.2,1274.5-730.5c7.9,23.6-60.9,190.5-163,402.6l-90.3,182.6l-282.8,202.3c-327.9,233.7-304.4,165-192.4,577.3c56.9,206.2,66.8,276.9,60.9,392.7c-7.9,131.6-15.7,153.2-163,414.3c-84.4,151.2-294.6,551.8-467.4,889.6c-278.9,547.9-314.2,630.4-329.9,750.1c-11.8,104.1-41.2,186.6-125.7,351.5c-104.1,212.1-108,221.9-108,379c0,104.1,21.6,261.2,58.9,437.9c31.4,151.2,82.5,398.6,113.9,549.8c94.3,443.8,108,640.2,82.5,1178.2c-11.8,259.2-29.5,740.3-39.3,1070.2c-17.7,530.2-33.4,728.5-64.8,758C1936.6,3760.2,1926.8,3738.5,1920.9,3709.1z"/><path d="M8043.8,3713c-5.9-31.4-17.7-70.7-21.6-86.4c-5.9-15.7-17.7-302.4-27.5-638.2c-9.8-335.8-27.5-822.8-39.3-1082c-27.5-628.4-23.6-661.8,186.6-1649.5c45.2-208.2,72.7-392.8,74.6-490.9c2-155.1,0-161-110-379c-88.4-170.8-115.9-247.4-125.7-343.7c-9.8-104.1-47.1-192.4-263.1-626.4c-139.4-278.8-351.5-685.3-473.3-903.3l-221.9-398.6v-176.7c2-137.5,15.7-223.9,62.8-392.7c106-371.2,129.6-308.3-192.5-538.1c-196.4-139.4-292.6-219.9-322.1-271c-55-100.1-225.8-485-225.8-510.6c0-129.6,1321.6,681.4,1496.4,919c25.5,33.4,66.8,196.4,123.7,481.1c47.1,235.6,115.9,569.5,155.1,738.4c51,223.9,78.5,408.5,100.1,677.5c33.4,422.2,53,545.9,110,706.9c35.4,98.2,45.2,192.4,62.8,703c35.3,913.1,31.4,1468.9-9.8,1600.5c-25.5,78.5-39.3,241.5-55,608.8c-11.8,274.9-29.5,606.8-41.2,736.4c-17.7,216-172.8,1176.3-212.1,1315.7l-15.7,58.9L8043.8,3713z"/><path d="M2260.6,792.9c-23.6-78.6-49.1-168.9-58.9-200.3c-11.8-29.5-13.7-62.8-7.9-72.7c17.7-31.4,233.7-131.6,394.7-188.5c131.6-43.2,184.6-51.1,379-51.1c123.7,0,367.2,19.6,540,43.2c626.4,82.5,608.8,78.6,648,216l21.6,70.7H5000h822.8l21.6-70.7c39.3-139.4,31.4-137.5,657.9-216c465.4-57,714.8-55,909.2,9.8c157.1,53,377,155.1,394.7,184.6c5.9,9.8-15.7,104.1-47.1,210.1c-33.4,106-58.9,196.4-58.9,200.3c0,11.8-170.8-11.8-687.3-92.3C6021.2,679.1,6166.5,688.9,5000,688.9s-1032.9-9.8-2012.8,147.3c-265.1,41.2-526.3,80.5-583.2,86.4l-102.1,13.8L2260.6,792.9z"/><path d="M2142.8-978.3c0-60.9,465.4-1023.1,606.8-1256.8c45.2-70.7,113.9-198.3,157.1-280.8c43.2-84.4,92.3-170.8,110-192.4c29.5-37.3,31.4-29.5,19.6,133.5c-5.9,96.2-29.5,241.6-49.1,324c-72.7,282.8-302.4,683.4-555.7,966.2C2246.8-1078.5,2142.8-968.5,2142.8-978.3z"/><path d="M7678.5-1162.9c-485-545.9-677.5-928.8-714.8-1427.6c-11.8-147.3-9.8-155.1,19.6-117.8c17.7,21.6,64.8,102.1,102.1,176.7c39.3,76.6,129.6,239.6,202.3,363.3c157.1,265.1,598.9,1201.8,565.6,1197.9C7849.4-972.5,7770.8-1058.9,7678.5-1162.9z"/><path d="M4026-2637.7c-194.4-15.7-223.9-37.3-343.7-259.2c-37.3-72.7-90.3-149.3-113.9-172.8l-45.2-43.2l-221.9,149.2c-121.8,80.5-227.8,147.3-237.6,147.3c-43.2,0-9.8-90.3,56.9-155.1c84.4-78.6,388.8-314.2,424.2-327.9c11.8-3.9,92.3,82.5,178.7,192.4c235.6,298.5,159.1,278.9,1156.6,286.7c868,7.9,1101.7-5.9,1190-72.7c47.1-33.4,170.9-172.8,308.3-345.6l60.9-78.5l57,43.2c29.5,25.5,111.9,86.4,180.7,137.5c186.6,139.4,255.3,206.2,269,267.1c7.9,31.4,3.9,53-7.8,53c-11.8,0-121.8-66.8-241.5-147.3L6474.8-3111l-47.1,43.2c-25.5,25.5-76.6,104.1-113.9,174.8c-37.3,70.7-94.3,155.1-125.7,184.6c-53,49.1-76.6,57-249.4,70.7C5720.7-2620,4255.8-2620,4026-2637.7z"/><path d="M4756.5-3600c-25.5-47.1-60.9-55-343.7-80.5c-127.6-11.8-255.3-31.4-282.8-41.2c-57-21.6-612.7-463.5-624.5-498.8c-11.8-29.5,198.3-506.6,227.8-516.4c11.8-3.9,82.5,31.4,155.1,80.5c329.9,219.9,410.4,237.6,1082,237.6c705,2,805.1-17.7,1123.3-225.8c82.5-55,161-96.2,172.8-92.3c29.5,9.8,239.6,487,227.8,516.4c-13.7,37.3-577.3,481.1-634.3,500.8c-29.5,9.8-157.1,27.5-280.8,39.3c-278.9,25.5-310.3,33.4-335.8,80.5c-17.7,33.4-43.2,37.3-243.5,37.3S4774.2-3566.6,4756.5-3600z"/></g></g>
</svg>